# xmcd CD database file
#
# Track frame offsets:
#	150
#	28135
#	62440
#	101037
#	126852
#	159865
#	181088
#	203518
#	228525
#	256470
#
# Disc length: 3740 seconds
#
# Revision: 0
# Processed by: cddbd v1.5.2PL0 Copyright (c) Steve Scherf et al.
# Submitted via: CDex 1.70beta2
#
DISCID=7c0e9a0a
DTITLE=quasimode - GOLDEN EORKS - remix by quasimode -
DYEAR=2009
DGENRE=Jazz
TTITLE0=Take the Frontiers feat. Valerie Etienne (Full Length Vocal Version) - quasimode
TTITLE1=Love Theme from 'Spartacus' (quasimode remix) - akiko
TTITLE2=Love Is Everywhere (quasimode Remix) - Masa Collective feat. Valerie etienne and Rob Gallagher
TTITLE3=Just Relax (quasimode Remix) - Noah feat. Blu
TTITLE4=Tonight the Nghit (quasimode Remix) - Markus Enochson w - Jocelyn Mathiue
TTITLE5=Time Up (quasimode Remix) - Idea 6
TTITLE6=In Mind of Eye feat. Dwight Trible - quasimode
TTITLE7=In The Name of Love - quasimode
TTITLE8=New York Afternoon (quasimode Remix) - Yasuko Agawa
TTITLE9=Sounds of Peace feat. Carmen Lundy (Trumpet Version) - quasimode
EXTD=YEAR: 2009
EXTT0=
EXTT1=
EXTT2=
EXTT3=
EXTT4=
EXTT5=
EXTT6=
EXTT7=
EXTT8=
EXTT9=
PLAYORDER=
